<?xml version="1.0" encoding="utf-8"?>
<!-- Generator: Adobe Illustrator 15.0.0, SVG Export Plug-In . SVG Version: 6.00 Build 0)  -->
<!DOCTYPE svg PUBLIC "-//W3C//DTD SVG 1.1//EN" "http://www.w3.org/Graphics/SVG/1.1/DTD/svg11.dtd">
<svg version="1.1" id="Layer_1" xmlns="http://www.w3.org/2000/svg" xmlns:xlink="http://www.w3.org/1999/xlink" x="0px" y="0px"
	 width="150.973px" height="95.419px" viewBox="0 0 150.973 95.419" enable-background="new 0 0 150.973 95.419"
	 xml:space="preserve">
<rect y="11.196" fill="none" width="146" height="57"/>
<text transform="matrix(1 0 0 1 0 60.1558)" font-family="'AmericanTypewriter'" font-size="72">PD</text>
<rect x="6.909" y="66.407" fill="none" width="144.063" height="24.432"/>
<text transform="matrix(1.6174 0 0 1 6.9092 85.2852)" font-family="'AmericanTypewriter'" font-size="27.763">n  o  m</text>
<g>
	<path fill="#270907" d="M99.906,8.689c-4.233,2.276-1.462,11.171,0.251,13.62c1.715,2.451,3.585,3.486,6.438,4.836
		c2.854,1.35,4.893,2.445,4.893,2.445c0.822,0.5,1.548,1.055,4.825,5.643c3.279,4.589,5.457,8.574,8.252,13.925
		c2.798,5.351,4.935,8.792,7.782,12.668c2.716,3.696,7.376,4.838,7.919,4.548l0.007-0.004l-0.004,0.001l0.009-0.003
		c0.541-0.292,1.493-4.45-1.034-8.249c-2.65-3.981-5.181-7.212-9.354-11.823c-4.172-4.611-7.236-8.12-10.416-12.761
		c-3.179-4.642-3.413-5.459-3.548-6.331c0,0-0.188-2.087-0.268-4.93c-0.079-2.843-0.285-4.773-1.998-7.224
		c-1.715-2.449-9.525-8.633-13.759-6.358L99.906,8.689z"/>
	<path fill="#AEB180" d="M98.529,8.312c-4.233,2.276-1.464,11.169,0.25,13.62c1.715,2.451,3.587,3.487,6.438,4.837
		c2.856,1.349,4.892,2.443,4.892,2.443c0.824,0.501,1.55,1.055,4.828,5.644c3.278,4.588,5.455,8.572,8.252,13.924
		c2.796,5.351,4.933,8.792,7.781,12.668c2.714,3.696,7.377,4.838,7.917,4.548l0.008-0.004l-0.002,0l0.007-0.004
		c0.541-0.29,1.493-4.45-1.032-8.248c-2.65-3.982-5.182-7.211-9.354-11.823c-4.173-4.612-7.239-8.12-10.417-12.761
		c-3.182-4.642-3.413-5.459-3.55-6.33c0,0-0.188-2.088-0.268-4.93s-0.283-4.773-1.997-7.224c-1.713-2.45-9.524-8.633-13.759-6.359
		L98.529,8.312z"/>
	<path fill="#C6E7EC" d="M113.483,21.723c0.119,2.779,0.161,4.756,0.161,4.756c0.143,0.853,0.695,1.926,3.831,6.5
		c3.135,4.574,6.141,8.039,10.234,12.594c4.093,4.554,6.581,7.741,9.194,11.664c2.494,3.741,1.636,7.796,1.119,8.076l-0.013,0.006
		c-0.517,0.279-5.029-0.892-7.703-4.536c-2.803-3.821-4.914-7.21-7.69-12.473c-2.775-5.263-4.936-9.184-8.164-13.707
		c-3.229-4.524-3.938-5.072-4.739-5.57c0,0-1.981-1.093-4.753-2.446c-2.773-1.352-4.593-2.385-6.281-4.8
		c-1.286-1.838-3.213-7.327-2.278-10.807c0.139-0.19,0.228-0.396,0.276-0.608c0.148-0.215,0.238-0.447,0.278-0.686
		c0.315-0.502,0.73-0.922,1.278-1.216c4.635-2.487,11.941,3.795,13.632,6.209C113.556,17.096,113.365,18.942,113.483,21.723z"/>
	<path fill="#EBF6F8" d="M98.516,8.538c-4.155,2.233-1.356,11.077,0.352,13.519c1.709,2.442,3.56,3.48,6.384,4.837
		c2.824,1.356,4.84,2.456,4.84,2.456c0.815,0.5,1.535,1.055,4.802,5.628c3.266,4.574,5.443,8.541,8.239,13.869
		c2.797,5.326,4.93,8.755,7.767,12.619c2.703,3.684,7.308,4.845,7.839,4.56c0,0-4.646-1.454-6.232-3.794
		c-1.586-2.342-5.685-8.01-8.952-14.122c-3.269-6.113-4.343-8.033-5.264-9.35c-0.921-1.316-5.03-7.477-6.45-8.836
		c-1.423-1.36-6.165-3.432-7.77-4.38c-1.604-0.949-3.241-1.943-3.891-2.967c-0.649-1.025-0.799-2.007-0.252-3.05
		c0.547-1.044,3.504-3.825,4.77-6.248c1.07-2.055,0.349-3.249-0.969-3.978C102.412,8.573,100.091,7.69,98.516,8.538z"/>
	<path fill="#030505" d="M102.402,8.048l2.684,3.815l-1.044,0.564l-3.239-4.605C101.424,7.868,102.172,8.071,102.402,8.048z"/>
	<path fill="#030505" d="M99.379,7.979l3.451,5.104l-1.212,0.656l-3.61-5.133C98.437,8.426,98.922,8.121,99.379,7.979z"/>
	<path fill="#030505" d="M96.563,10.684l2.684,3.814l1.044-0.564L97.052,9.33C96.818,9.837,96.69,10.515,96.563,10.684z"/>
	<path fill="#270907" d="M146.477,15.223c-3.878-3.09-12.38,1.473-14.395,3.549c-2.016,2.076-2.473,3.94-2.925,6.729
		s-0.916,4.812-0.916,4.812c-0.248,0.832-0.587,1.592-4.336,5.538c-3.751,3.946-7.237,6.797-11.963,10.515
		c-4.728,3.718-7.65,6.4-10.791,9.803c-2.995,3.243-2.604,7.538-2.108,7.933l0.007,0.005l-0.002-0.002l0.006,0.005
		c0.495,0.395,5.246,0.196,8.414-2.91c3.32-3.256,5.884-6.226,9.349-10.95c3.467-4.722,6.143-8.219,9.98-12.094
		c3.842-3.875,4.63-4.275,5.509-4.605c0,0,2.156-0.674,5.15-1.438c2.995-0.763,4.976-1.412,6.992-3.488
		c2.015-2.076,5.898-10.318,2.022-13.407L146.477,15.223z"/>
	<path fill="#AEB180" d="M146.403,13.944c-3.878-3.089-12.379,1.472-14.395,3.549c-2.015,2.076-2.472,3.941-2.925,6.73
		c-0.452,2.789-0.914,4.81-0.914,4.81c-0.25,0.833-0.588,1.593-4.338,5.539c-3.749,3.947-7.235,6.797-11.963,10.516
		c-4.727,3.717-7.649,6.4-10.79,9.803c-2.994,3.241-2.604,7.537-2.108,7.931l0.007,0.005l-0.002-0.002l0.007,0.007
		c0.496,0.393,5.247,0.196,8.412-2.91c3.322-3.257,5.885-6.228,9.351-10.949c3.466-4.724,6.141-8.222,9.98-12.095
		c3.841-3.875,4.63-4.275,5.509-4.607c0,0,2.155-0.673,5.148-1.436c2.994-0.764,4.979-1.412,6.993-3.488
		c2.015-2.077,5.899-10.317,2.023-13.407L146.403,13.944z"/>
	<path fill="#C6E7EC" d="M137.294,30.106c-2.913,0.783-5,1.302-5,1.302c-0.858,0.333-1.811,1.071-5.593,4.892
		c-3.783,3.819-6.432,7.257-9.866,11.897c-3.434,4.639-5.964,7.562-9.234,10.774c-3.119,3.064-7.728,3.317-8.2,2.939l-0.013-0.008
		c-0.474-0.378-0.783-4.55,2.17-7.746c3.098-3.349,5.975-5.998,10.613-9.674c4.64-3.68,8.066-6.5,11.761-10.388
		c3.699-3.887,4.039-4.632,4.292-5.445c0,0,0.479-1.974,0.964-4.692c0.482-2.719,0.954-4.539,2.94-6.585
		c1.512-1.557,6.684-4.56,10.705-4.606c0.252,0.073,0.501,0.099,0.741,0.089c0.28,0.075,0.558,0.097,0.826,0.072
		c0.642,0.148,1.231,0.404,1.732,0.803c4.24,3.383,0.077,11.215-1.908,13.261C142.239,29.036,140.209,29.324,137.294,30.106z"/>
	<path fill="#EBF6F8" d="M146.158,13.987c-3.805-3.032-12.244,1.542-14.252,3.611c-2.009,2.069-2.474,3.918-2.944,6.683
		c-0.471,2.764-0.944,4.769-0.944,4.769c-0.253,0.825-0.595,1.58-4.332,5.513c-3.736,3.932-7.206,6.778-11.906,10.492
		c-4.701,3.713-7.611,6.388-10.742,9.777c-2.986,3.23-2.638,7.48-2.15,7.867c0,0-0.055-4.356,1.888-6.295
		c1.943-1.94,6.56-6.856,11.933-11.167c5.374-4.311,7.045-5.706,8.127-6.822c1.083-1.115,6.218-6.162,7.174-7.718
		c0.955-1.557,1.526-6.15,1.982-7.765c0.457-1.614,0.949-3.266,1.815-4.077c0.865-0.81,1.857-1.179,3.155-0.963
		c1.299,0.216,5.274,2.083,8.285,2.579c2.553,0.42,3.574-0.494,3.895-1.807C147.463,17.352,147.603,15.138,146.158,13.987z"/>
	<path fill="#030505" d="M148.017,17.215l-3.132,3.246l-0.959-0.761l3.78-3.917C147.872,16.329,147.913,17.022,148.017,17.215z"/>
	<path fill="#030505" d="M147.049,14.594l-4.237,4.222l-1.113-0.883l4.213-4.367C146.25,13.892,146.743,14.236,147.049,14.594z"/>
	<path fill="#030505" d="M143.205,12.832l-3.132,3.246l0.959,0.76l3.78-3.917C144.192,12.844,143.43,12.899,143.205,12.832z"/>
</g>
</svg>
