<?xml version="1.0" encoding="utf-8"?>
<!-- Generator: Adobe Illustrator 15.0.0, SVG Export Plug-In . SVG Version: 6.00 Build 0)  -->
<!DOCTYPE svg PUBLIC "-//W3C//DTD SVG 1.1 Tiny//EN" "http://www.w3.org/Graphics/SVG/1.1/DTD/svg11-tiny.dtd">
<svg version="1.1" baseProfile="tiny" id="Layer_1" xmlns="http://www.w3.org/2000/svg" xmlns:xlink="http://www.w3.org/1999/xlink"
	 x="0px" y="0px" width="51.971px" height="58.596px" viewBox="0 0 51.971 58.596" xml:space="preserve">
<g>
	<path fill="#270907" d="M3.752,0.869C-0.481,3.145,2.29,12.04,4.003,14.489c1.715,2.451,3.585,3.486,6.438,4.836
		c2.854,1.35,4.893,2.445,4.893,2.445c0.822,0.5,1.548,1.055,4.825,5.643c3.279,4.588,5.457,8.574,8.252,13.924
		c2.798,5.352,4.935,8.793,7.782,12.669c2.716,3.696,7.376,4.839,7.919,4.548l0.007-0.004h-0.004l0.009-0.003
		c0.541-0.292,1.493-4.45-1.034-8.249c-2.65-3.98-5.181-7.211-9.354-11.822c-4.172-4.611-7.236-8.119-10.416-12.761
		c-3.179-4.642-3.413-5.46-3.548-6.331c0,0-0.188-2.087-0.268-4.93c-0.079-2.842-0.285-4.772-1.998-7.224
		C15.791,4.781,7.98-1.403,3.747,0.872L3.752,0.869z"/>
	<path fill="#AEB180" d="M2.375,0.491c-4.233,2.276-1.464,11.169,0.25,13.62c1.715,2.45,3.587,3.487,6.438,4.837
		c2.856,1.35,4.892,2.443,4.892,2.443c0.824,0.501,1.55,1.055,4.828,5.645c3.278,4.588,5.455,8.572,8.252,13.924
		c2.796,5.351,4.933,8.792,7.781,12.668c2.714,3.695,7.377,4.838,7.917,4.548l0.008-0.005l-0.002,0.001l0.007-0.004
		c0.541-0.29,1.493-4.45-1.032-8.247c-2.65-3.982-5.182-7.212-9.354-11.823c-4.173-4.612-7.239-8.12-10.417-12.761
		c-3.182-4.643-3.413-5.46-3.55-6.33c0,0-0.188-2.088-0.268-4.93c-0.079-2.842-0.283-4.774-1.997-7.224
		C14.416,4.402,6.604-1.781,2.37,0.494L2.375,0.491z"/>
	<path fill="#C6E7EC" d="M17.329,13.902c0.119,2.778,0.161,4.756,0.161,4.756c0.143,0.853,0.695,1.927,3.831,6.5
		c3.135,4.573,6.141,8.038,10.234,12.595c4.093,4.554,6.581,7.74,9.194,11.664c2.494,3.74,1.636,7.796,1.119,8.075l-0.013,0.006
		c-0.517,0.278-5.029-0.892-7.703-4.536c-2.803-3.82-4.914-7.209-7.69-12.473c-2.775-5.262-4.936-9.184-8.164-13.706
		c-3.229-4.524-3.938-5.072-4.739-5.57c0,0-1.981-1.093-4.753-2.446c-2.773-1.352-4.593-2.385-6.281-4.799
		C1.239,12.129-0.688,6.64,0.247,3.16c0.139-0.19,0.228-0.396,0.276-0.608c0.148-0.215,0.238-0.447,0.278-0.686
		C1.117,1.364,1.532,0.944,2.08,0.65c4.635-2.487,11.941,3.795,13.632,6.209C17.401,9.275,17.211,11.122,17.329,13.902z"/>
	<path fill="#EBF6F8" d="M2.361,0.717c-4.155,2.233-1.356,11.077,0.352,13.52c1.709,2.441,3.56,3.48,6.384,4.837
		s4.84,2.456,4.84,2.456c0.815,0.5,1.535,1.055,4.802,5.627c3.266,4.574,5.443,8.541,8.239,13.869
		c2.797,5.326,4.93,8.756,7.767,12.619c2.703,3.684,7.308,4.845,7.839,4.561c0,0-4.646-1.455-6.232-3.795
		c-1.586-2.342-5.685-8.01-8.952-14.121c-3.269-6.113-4.343-8.033-5.264-9.35s-5.03-7.477-6.45-8.836
		c-1.423-1.36-6.165-3.432-7.77-4.381s-3.241-1.943-3.891-2.967c-0.649-1.025-0.799-2.008-0.252-3.051
		c0.547-1.043,3.504-3.825,4.77-6.248c1.07-2.055,0.349-3.249-0.969-3.978C6.258,0.752,3.937-0.131,2.361,0.717z"/>
	<path fill="#030505" d="M6.248,0.228l2.684,3.815L7.888,4.607L4.648,0.002C5.27,0.047,6.018,0.25,6.248,0.228z"/>
	<path fill="#030505" d="M3.225,0.158l3.451,5.104L5.464,5.918l-3.61-5.133C2.282,0.605,2.768,0.3,3.225,0.158z"/>
	<path fill="#030505" d="M0.409,2.863l2.684,3.814l1.044-0.564L0.897,1.509C0.664,2.017,0.536,2.694,0.409,2.863z"/>
	<path fill="#270907" d="M50.322,7.402c-3.878-3.09-12.38,1.473-14.395,3.549c-2.016,2.076-2.473,3.94-2.925,6.729
		s-0.916,4.812-0.916,4.812c-0.248,0.831-0.587,1.592-4.336,5.537C24,31.977,20.514,34.828,15.788,38.545
		c-4.728,3.719-7.65,6.4-10.791,9.803c-2.995,3.242-2.604,7.537-2.108,7.933l0.007,0.005l-0.002-0.002l0.006,0.006
		c0.495,0.395,5.246,0.196,8.414-2.91c3.32-3.256,5.884-6.225,9.349-10.949c3.467-4.722,6.143-8.219,9.98-12.094
		c3.842-3.875,4.63-4.275,5.509-4.605c0,0,2.156-0.674,5.15-1.438c2.995-0.764,4.976-1.412,6.992-3.488
		c2.015-2.076,5.898-10.318,2.022-13.408L50.322,7.402z"/>
	<path fill="#AEB180" d="M50.249,6.123C46.371,3.034,37.87,7.595,35.854,9.672c-2.015,2.077-2.472,3.942-2.925,6.73
		c-0.452,2.789-0.914,4.81-0.914,4.81c-0.25,0.833-0.588,1.594-4.338,5.539c-3.749,3.947-7.235,6.798-11.963,10.517
		c-4.727,3.718-7.649,6.399-10.79,9.804c-2.994,3.24-2.604,7.536-2.108,7.931l0.007,0.005l-0.002-0.002l0.007,0.008
		c0.496,0.393,5.247,0.195,8.412-2.91c3.322-3.258,5.885-6.228,9.351-10.949c3.466-4.724,6.141-8.223,9.98-12.096
		c3.841-3.875,4.63-4.275,5.509-4.606c0,0,2.155-0.673,5.148-1.437c2.994-0.764,4.979-1.412,6.993-3.488S54.121,9.209,50.245,6.12
		L50.249,6.123z"/>
	<path fill="#C6E7EC" d="M41.14,22.286c-2.913,0.783-5,1.301-5,1.301c-0.858,0.334-1.811,1.072-5.593,4.893
		c-3.783,3.818-6.432,7.256-9.866,11.896c-3.434,4.639-5.964,7.562-9.234,10.774c-3.119,3.064-7.728,3.317-8.2,2.938l-0.013-0.008
		c-0.474-0.379-0.783-4.551,2.17-7.746c3.098-3.349,5.975-5.998,10.613-9.674c4.64-3.681,8.066-6.5,11.761-10.389
		c3.699-3.887,4.039-4.633,4.292-5.445c0,0,0.479-1.973,0.964-4.691c0.482-2.719,0.954-4.539,2.94-6.585
		c1.512-1.557,6.684-4.56,10.705-4.606c0.252,0.073,0.501,0.099,0.741,0.089c0.28,0.075,0.558,0.097,0.826,0.072
		c0.642,0.148,1.231,0.404,1.732,0.803c4.24,3.383,0.077,11.216-1.908,13.261C46.085,21.215,44.055,21.503,41.14,22.286z"/>
	<path fill="#EBF6F8" d="M50.004,6.167C46.199,3.135,37.76,7.709,35.752,9.778c-2.009,2.069-2.474,3.918-2.944,6.683
		c-0.471,2.764-0.944,4.769-0.944,4.769c-0.253,0.826-0.595,1.58-4.332,5.514c-3.736,3.932-7.206,6.777-11.906,10.491
		c-4.701,3.713-7.611,6.388-10.742,9.777c-2.986,3.229-2.638,7.479-2.15,7.866c0,0-0.055-4.355,1.888-6.295
		c1.943-1.939,6.56-6.856,11.933-11.167c5.374-4.312,7.045-5.706,8.127-6.821c1.083-1.115,6.218-6.162,7.174-7.719
		c0.955-1.557,1.526-6.15,1.982-7.764c0.457-1.614,0.949-3.267,1.815-4.077c0.865-0.81,1.857-1.179,3.155-0.963
		c1.299,0.216,5.274,2.083,8.285,2.579c2.553,0.42,3.574-0.493,3.895-1.807C51.309,9.531,51.448,7.317,50.004,6.167z"/>
	<path fill="#030505" d="M51.862,9.394l-3.132,3.245l-0.959-0.76l3.78-3.917C51.718,8.508,51.759,9.201,51.862,9.394z"/>
	<path fill="#030505" d="M50.895,6.773l-4.237,4.222l-1.113-0.883l4.213-4.367C50.096,6.071,50.589,6.415,50.895,6.773z"/>
	<path fill="#030505" d="M47.051,5.011l-3.132,3.246l0.959,0.76l3.78-3.917C48.038,5.023,47.275,5.079,47.051,5.011z"/>
</g>
</svg>
